<svg xmlns="http://www.w3.org/2000/svg" viewBox="-49.202 -2 248.809 313.197" width="248.809" height="313.197" shape-rendering="geometricPrecision"><g><g data-key="pipe:1:n0"><rect x="-15" y="0" width="30" height="162.599" fill="#d9d9d9" stroke="#8a8a8a" stroke-width="1.21"/></g><g data-key="pipe:1:n1"><rect x="-15" y="210.599" width="30" height="35.599" fill="#d9d9d9" stroke="#8a8a8a" stroke-width="1.21"/></g><g data-key="pipe:1:measure@1-1#0"><rect x="-15" y="300.197" width="30" height="9" fill="#d9d9d9" stroke="#8a8a8a" stroke-width="1.21"/></g><g data-key="pipe:2:n0"><rect x="45" y="0" width="30" height="9" fill="#d9d9d9" stroke="#8a8a8a" stroke-width="1.21"/></g><g data-key="pipe:2:single:H@2-2#0"><rect x="45" y="63" width="30" height="10" fill="#d9d9d9" stroke="#8a8a8a" stroke-width="1.21"/></g><g data-key="pipe:2:controlled@2-3#0"><rect x="45" y="127" width="30" height="13" fill="#d9d9d9" stroke="#8a8a8a" stroke-width="1.21"/></g><g data-key="pipe:2:n3"><rect x="45" y="233.197" width="30" height="76" fill="#d9d9d9" stroke="#8a8a8a" stroke-width="1.21"/></g><g data-key="pipe:3:n0"><rect x="105" y="0" width="30" height="73" fill="#d9d9d9" stroke="#8a8a8a" stroke-width="1.21"/></g><g data-key="pipe:3:controlled@2-3#0"><rect x="105" y="127" width="30" height="13" fill="#d9d9d9" stroke="#8a8a8a" stroke-width="1.21"/></g><g data-key="pipe:3:n2"><rect x="105" y="233.197" width="30" height="76" fill="#d9d9d9" stroke="#8a8a8a" stroke-width="1.21"/></g><g data-key="single:H@2-2#0"><rect x="33" y="9" width="54" height="54" fill="#e9e9e9" stroke="#4a4a4a" stroke-width="1.76"/><rect x="46.25" y="21.7" width="27.5" height="28.6" rx="2" fill="#ef5f5b"/><text x="60" y="43.81" text-anchor="middle" font-family="ui-sans-serif, system-ui, -apple-system, &apos;Helvetica Neue&apos;, Arial, sans-serif" font-size="22" font-weight="700" fill="#ffffff">H</text></g><g data-key="controlled@2-3#0"><rect x="33" y="73" width="114" height="54" fill="#e9e9e9" stroke="#4a4a4a" stroke-width="1.76"/></g><g data-key="measure@1-1#0"><rect x="-27" y="246.197" width="54" height="54" fill="#9d9d9d" stroke="#4a4a4a" stroke-width="1.76"/><path d="M-16.2 281.297A16.2 16.2 0 0 1 16.2 281.297" fill="none" stroke="#111111" stroke-width="1.54" stroke-linecap="round"/><line x1="-12.312" y1="281.297" x2="-16.2" y2="281.297" stroke="#111111" stroke-width="1.232" stroke-linecap="round"/><line x1="-8.706" y1="272.592" x2="-11.455" y2="269.842" stroke="#111111" stroke-width="1.232" stroke-linecap="round"/><line x1="0" y1="268.985" x2="0" y2="265.097" stroke="#111111" stroke-width="1.232" stroke-linecap="round"/><line x1="8.706" y1="272.592" x2="11.455" y2="269.842" stroke="#111111" stroke-width="1.232" stroke-linecap="round"/><line x1="12.312" y1="281.297" x2="16.2" y2="281.297" stroke="#111111" stroke-width="1.232" stroke-linecap="round"/><line x1="0" y1="281.297" x2="7.067" y2="264.235" stroke="#111111" stroke-width="2.31" stroke-linecap="round"/><circle cx="0" cy="281.297" r="3.402" fill="#111111"/><text x="21.168" y="258.574" text-anchor="end" font-family="ui-sans-serif, system-ui, -apple-system, &apos;Helvetica Neue&apos;, Arial, sans-serif" font-size="12.96" font-weight="700" fill="#111111">Z</text></g><g data-key="controlled@2-3#0"><line x1="60" y1="100" x2="120" y2="100" stroke="#1b3fae" stroke-width="3.3" stroke-linecap="round"/></g><g data-key="controlled@2-3#0"><circle cx="60" cy="100" r="6.6" fill="#1b3fae"/></g><g data-key="controlled@2-3#0"><circle cx="120" cy="100" r="13.2" fill="#1b3fae"/><line x1="112.74" y1="100" x2="127.26" y2="100" stroke="#ffffff" stroke-width="2.42" stroke-linecap="round"/><line x1="120" y1="92.74" x2="120" y2="107.26" stroke="#ffffff" stroke-width="2.42" stroke-linecap="round"/></g><g data-key="view@2-3#0"><path d="M52.396 162.886A18.136 18.136 0 0 1 85.94 163.954A21.205 21.205 0 0 1 119.483 164.237A22.093 22.093 0 0 1 153.027 161.472A20.396 20.396 0 0 1 182.008 174.603A16.833 16.833 0 0 1 176.227 203.354A21.925 21.925 0 0 1 145.236 210.455A17.859 17.859 0 0 1 111.693 209.01A21.88 21.88 0 0 1 78.15 209.757A19.838 19.838 0 0 1 44.417 210.137A18.834 18.834 0 0 1 30.516 182.991A19.979 19.979 0 0 1 52.396 162.886Z" fill="#ffffff" stroke="#111111" stroke-width="1.3" stroke-linejoin="round"/></g><g data-key="view@2-3#0"><g transform="translate(54.262 186.599)"><path d="M-11.7 -11.7L11.7 -11.7L11.7 11.7L-11.7 11.7Z" fill="#ffffff" stroke="#111111" stroke-width="2.2" stroke-linejoin="round"/></g></g><g data-key="view@2-3#0"><g transform="translate(84.782 186.599)"><path d="M0 -12.834L14.82 12.834L-14.82 12.834Z" fill="#ffffff" stroke="#111111" stroke-width="2.2" stroke-linejoin="round"/></g></g><g data-key="view@2-3#0"><g transform="translate(126.502 186.599)"><path d="M-11.7 -11.7L11.7 -11.7L11.7 11.7L-11.7 11.7Z" fill="#111111" stroke="#111111" stroke-width="2.2" stroke-linejoin="round"/></g></g><g data-key="view@2-3#0"><g transform="translate(157.022 186.599)"><path d="M0 -12.834L14.82 12.834L-14.82 12.834Z" fill="#111111" stroke="#111111" stroke-width="2.2" stroke-linejoin="round"/></g></g><g data-key="view@2-3#0"><rect x="105.602" y="174.535" width="3.2" height="24.128" fill="#111111"/></g><g data-key="view@1-1#0"><g transform="translate(-17.202 186.599)"><path d="M-13 0A13 13 0 1 0 13 0A13 13 0 1 0 -13 0Z" fill="#ffffff" stroke="#111111" stroke-width="2.2" stroke-linejoin="round"/></g></g></g></svg>