<svg xmlns="http://www.w3.org/2000/svg" viewBox="-46.5 -17 213.5 102" width="213.5" height="102" shape-rendering="geometricPrecision"><g><g data-key="pipe:1:controlled@1-3#0"><path d="M-15 68L-15 75.9A15 5.1 0 0 0 15 75.9L15 68" fill="#d9d9d9" stroke="#8a8a8a" stroke-width="1.21"/></g><g data-key="pipe:2:controlled@1-3#0"><path d="M45 68L45 75.9A15 5.1 0 0 0 75 75.9L75 68" fill="#d9d9d9" stroke="#8a8a8a" stroke-width="1.21"/></g><g data-key="pipe:3:controlled@1-3#0"><path d="M105 68L105 75.9A15 5.1 0 0 0 135 75.9L135 68" fill="#d9d9d9" stroke="#8a8a8a" stroke-width="1.21"/></g><g data-key="controlled@1-3#0"><path d="M-33.5 18L-20.5 10L153.5 10L140.5 18Z" fill="#efefef" stroke="#4a4a4a" stroke-width="1.54" stroke-linejoin="round"/><path d="M140.5 18L153.5 10L153.5 64L140.5 72Z" fill="#bababa" stroke="#4a4a4a" stroke-width="1.54" stroke-linejoin="round"/><rect x="-33.5" y="18" width="174" height="54" fill="#e9e9e9" stroke="#4a4a4a" stroke-width="1.54"/></g><g data-key="pipe:1:n0"><path d="M-15 0L-15 9.9A15 5.1 0 0 0 15 9.9L15 0" fill="#d9d9d9" stroke="#8a8a8a" stroke-width="1.21"/><ellipse cx="0" cy="0" rx="15" ry="5.1" fill="#e6e6e6" stroke="#8a8a8a" stroke-width="1.21"/></g><g data-key="pipe:2:n0"><path d="M45 0L45 9.9A15 5.1 0 0 0 75 9.9L75 0" fill="#d9d9d9" stroke="#8a8a8a" stroke-width="1.21"/><ellipse cx="60" cy="0" rx="15" ry="5.1" fill="#e6e6e6" stroke="#8a8a8a" stroke-width="1.21"/></g><g data-key="pipe:3:n0"><path d="M105 0L105 9.9A15 5.1 0 0 0 135 9.9L135 0" fill="#d9d9d9" stroke="#8a8a8a" stroke-width="1.21"/><ellipse cx="120" cy="0" rx="15" ry="5.1" fill="#e6e6e6" stroke="#8a8a8a" stroke-width="1.21"/></g><g data-key="controlled@1-3#0"><line x1="-6.5" y1="45" x2="113.5" y2="45" stroke="#1b3fae" stroke-width="3.3" stroke-linecap="round"/></g><g data-key="controlled@1-3#0"><circle cx="-6.5" cy="45" r="6.6" fill="#1b3fae"/></g><g data-key="controlled@1-3#0"><circle cx="53.5" cy="45" r="6.6" fill="#1b3fae"/></g><g data-key="controlled@1-3#0"><circle cx="113.5" cy="45" r="13.2" fill="#1b3fae"/><line x1="106.24" y1="45" x2="120.76" y2="45" stroke="#ffffff" stroke-width="2.42" stroke-linecap="round"/><line x1="113.5" y1="37.74" x2="113.5" y2="52.26" stroke="#ffffff" stroke-width="2.42" stroke-linecap="round"/></g></g></svg>