<svg xmlns="http://www.w3.org/2000/svg" viewBox="-46.5 -17 213.5 230" width="213.5" height="230" shape-rendering="geometricPrecision"><g><g data-key="pipe:1:controlled@1-2#0"><path d="M-15 196L-15 203.9A15 5.1 0 0 0 15 203.9L15 196" fill="#3a3a42" stroke="#8c8c98" stroke-width="1.21"/></g><g data-key="pipe:2:controlled@1-2#0"><path d="M45 196L45 203.9A15 5.1 0 0 0 75 203.9L75 196" fill="#3a3a42" stroke="#8c8c98" stroke-width="1.21"/></g><g data-key="controlled@1-2#0"><path d="M-33.5 146L-20.5 138L93.5 138L80.5 146Z" fill="#67676d" stroke="#b8b8c4" stroke-width="1.54" stroke-linejoin="round"/><path d="M80.5 146L93.5 138L93.5 192L80.5 200Z" fill="#23232a" stroke="#b8b8c4" stroke-width="1.54" stroke-linejoin="round"/><rect x="-33.5" y="146" width="114" height="54" fill="#2c2c34" stroke="#b8b8c4" stroke-width="1.54"/></g><g data-key="pipe:1:single:H@1-1#1"><path d="M-15 132L-15 137.9A15 5.1 0 0 0 15 137.9L15 132" fill="#3a3a42" stroke="#8c8c98" stroke-width="1.21"/></g><g data-key="pipe:3:controlled@3-3#1"><path d="M105 132L105 203.9A15 5.1 0 0 0 135 203.9L135 132" fill="#3a3a42" stroke="#8c8c98" stroke-width="1.21"/></g><g data-key="single:H@1-1#1"><path d="M-33.5 82L-20.5 74L33.5 74L20.5 82Z" fill="#67676d" stroke="#b8b8c4" stroke-width="1.54" stroke-linejoin="round"/><path d="M20.5 82L33.5 74L33.5 128L20.5 136Z" fill="#23232a" stroke="#b8b8c4" stroke-width="1.54" stroke-linejoin="round"/><rect x="-33.5" y="82" width="54" height="54" fill="#2c2c34" stroke="#b8b8c4" stroke-width="1.54"/><rect x="-20.25" y="94.7" width="27.5" height="28.6" rx="2" fill="#ef5f5b"/><text x="-6.5" y="116.81" text-anchor="middle" font-family="ui-sans-serif, system-ui, -apple-system, &apos;Helvetica Neue&apos;, Arial, sans-serif" font-size="22" font-weight="700" fill="#ffffff">H</text></g><g data-key="controlled@3-3#1"><path d="M86.5 82L99.5 74L153.5 74L140.5 82Z" fill="#67676d" stroke="#b8b8c4" stroke-width="1.54" stroke-linejoin="round"/><path d="M140.5 82L153.5 74L153.5 128L140.5 136Z" fill="#23232a" stroke="#b8b8c4" stroke-width="1.54" stroke-linejoin="round"/><rect x="86.5" y="82" width="54" height="54" fill="#2c2c34" stroke="#b8b8c4" stroke-width="1.54"/></g><g data-key="pipe:1:single:H@1-1#0"><path d="M-15 68L-15 73.9A15 5.1 0 0 0 15 73.9L15 68" fill="#3a3a42" stroke="#8c8c98" stroke-width="1.21"/></g><g data-key="pipe:2:single:Z@2-2#0"><path d="M45 68L45 137.9A15 5.1 0 0 0 75 137.9L75 68" fill="#3a3a42" stroke="#8c8c98" stroke-width="1.21"/></g><g data-key="pipe:3:controlled@3-3#0"><path d="M105 68L105 73.9A15 5.1 0 0 0 135 73.9L135 68" fill="#3a3a42" stroke="#8c8c98" stroke-width="1.21"/></g><g data-key="single:H@1-1#0"><path d="M-33.5 18L-20.5 10L33.5 10L20.5 18Z" fill="#67676d" stroke="#b8b8c4" stroke-width="1.54" stroke-linejoin="round"/><path d="M20.5 18L33.5 10L33.5 64L20.5 72Z" fill="#23232a" stroke="#b8b8c4" stroke-width="1.54" stroke-linejoin="round"/><rect x="-33.5" y="18" width="54" height="54" fill="#2c2c34" stroke="#b8b8c4" stroke-width="1.54"/><rect x="-20.25" y="30.7" width="27.5" height="28.6" rx="2" fill="#ef5f5b"/><text x="-6.5" y="52.81" text-anchor="middle" font-family="ui-sans-serif, system-ui, -apple-system, &apos;Helvetica Neue&apos;, Arial, sans-serif" font-size="22" font-weight="700" fill="#ffffff">H</text></g><g data-key="single:Z@2-2#0"><path d="M26.5 18L39.5 10L93.5 10L80.5 18Z" fill="#67676d" stroke="#b8b8c4" stroke-width="1.54" stroke-linejoin="round"/><path d="M80.5 18L93.5 10L93.5 64L80.5 72Z" fill="#23232a" stroke="#b8b8c4" stroke-width="1.54" stroke-linejoin="round"/><rect x="26.5" y="18" width="54" height="54" fill="#2c2c34" stroke="#b8b8c4" stroke-width="1.54"/><rect x="39.75" y="30.7" width="27.5" height="28.6" rx="2" fill="#7042d6"/><text x="53.5" y="52.81" text-anchor="middle" font-family="ui-sans-serif, system-ui, -apple-system, &apos;Helvetica Neue&apos;, Arial, sans-serif" font-size="22" font-weight="700" fill="#ffffff">Z</text></g><g data-key="controlled@3-3#0"><path d="M86.5 18L99.5 10L153.5 10L140.5 18Z" fill="#67676d" stroke="#b8b8c4" stroke-width="1.54" stroke-linejoin="round"/><path d="M140.5 18L153.5 10L153.5 64L140.5 72Z" fill="#23232a" stroke="#b8b8c4" stroke-width="1.54" stroke-linejoin="round"/><rect x="86.5" y="18" width="54" height="54" fill="#2c2c34" stroke="#b8b8c4" stroke-width="1.54"/></g><g data-key="pipe:1:n0"><path d="M-15 0L-15 9.9A15 5.1 0 0 0 15 9.9L15 0" fill="#3a3a42" stroke="#8c8c98" stroke-width="1.21"/><ellipse cx="0" cy="0" rx="15" ry="5.1" fill="#7d7d82" stroke="#8c8c98" stroke-width="1.21"/></g><g data-key="pipe:2:n0"><path d="M45 0L45 9.9A15 5.1 0 0 0 75 9.9L75 0" fill="#3a3a42" stroke="#8c8c98" stroke-width="1.21"/><ellipse cx="60" cy="0" rx="15" ry="5.1" fill="#7d7d82" stroke="#8c8c98" stroke-width="1.21"/></g><g data-key="pipe:3:n0"><path d="M105 0L105 9.9A15 5.1 0 0 0 135 9.9L135 0" fill="#3a3a42" stroke="#8c8c98" stroke-width="1.21"/><ellipse cx="120" cy="0" rx="15" ry="5.1" fill="#7d7d82" stroke="#8c8c98" stroke-width="1.21"/></g><g data-key="controlled@3-3#0"><circle cx="113.5" cy="45" r="13.2" fill="#7aa2ff"/><line x1="106.24" y1="45" x2="120.76" y2="45" stroke="#101014" stroke-width="2.42" stroke-linecap="round"/><line x1="113.5" y1="37.74" x2="113.5" y2="52.26" stroke="#101014" stroke-width="2.42" stroke-linecap="round"/></g><g data-key="controlled@3-3#1"><circle cx="113.5" cy="109" r="13.2" fill="#7aa2ff"/><line x1="106.24" y1="109" x2="120.76" y2="109" stroke="#101014" stroke-width="2.42" stroke-linecap="round"/><line x1="113.5" y1="101.74" x2="113.5" y2="116.26" stroke="#101014" stroke-width="2.42" stroke-linecap="round"/></g><g data-key="controlled@1-2#0"><line x1="-6.5" y1="173" x2="53.5" y2="173" stroke="#7aa2ff" stroke-width="3.3" stroke-linecap="round"/></g><g data-key="controlled@1-2#0"><circle cx="-6.5" cy="173" r="6.6" fill="#7aa2ff"/></g><g data-key="controlled@1-2#0"><circle cx="53.5" cy="173" r="13.2" fill="#7aa2ff"/><line x1="46.24" y1="173" x2="60.76" y2="173" stroke="#101014" stroke-width="2.42" stroke-linecap="round"/><line x1="53.5" y1="165.74" x2="53.5" y2="180.26" stroke="#101014" stroke-width="2.42" stroke-linecap="round"/></g></g></svg>