<svg xmlns="http://www.w3.org/2000/svg" viewBox="-43 -17 150 102" width="150" height="102" shape-rendering="geometricPrecision"><g><g data-key="pipe:1:n1"><path d="M-15 69L-15 75.9A15 5.1 0 0 0 15 75.9L15 69" fill="#3a3a42" stroke="#8c8c98" stroke-width="1.21"/><ellipse cx="0" cy="69" rx="15" ry="5.1" fill="#7d7d82" stroke="#8c8c98" stroke-width="1.21"/></g><g data-key="pipe:2:n1"><path d="M45 69L45 75.9A15 5.1 0 0 0 75 75.9L75 69" fill="#3a3a42" stroke="#8c8c98" stroke-width="1.21"/><ellipse cx="60" cy="69" rx="15" ry="5.1" fill="#7d7d82" stroke="#8c8c98" stroke-width="1.21"/></g><g data-key="pipe:1:n0"><path d="M-15 0L-15 15.9A15 5.1 0 0 0 15 15.9L15 0" fill="#3a3a42" stroke="#8c8c98" stroke-width="1.21"/><ellipse cx="0" cy="0" rx="15" ry="5.1" fill="#7d7d82" stroke="#8c8c98" stroke-width="1.21"/></g><g data-key="pipe:2:n0"><path d="M45 0L45 15.9A15 5.1 0 0 0 75 15.9L75 0" fill="#3a3a42" stroke="#8c8c98" stroke-width="1.21"/><ellipse cx="60" cy="0" rx="15" ry="5.1" fill="#7d7d82" stroke="#8c8c98" stroke-width="1.21"/></g><g data-key="view@1-2#0"><g transform="translate(0 45)"><path d="M-13 0A13 13 0 1 0 13 0A13 13 0 1 0 -13 0Z" fill="#101014" stroke="#565660" stroke-width="2.2" stroke-linejoin="round"/><text x="0" y="4.8" text-anchor="middle" font-family="ui-sans-serif, system-ui, -apple-system, &apos;Helvetica Neue&apos;, Arial, sans-serif" font-size="13.52" font-weight="700" fill="#9a9aa6">?</text></g></g><g data-key="view@1-2#0"><g transform="translate(60 45)"><path d="M-11.7 -11.7L11.7 -11.7L11.7 11.7L-11.7 11.7Z" fill="#101014" stroke="#565660" stroke-width="2.2" stroke-linejoin="round"/><text x="0" y="4.8" text-anchor="middle" font-family="ui-sans-serif, system-ui, -apple-system, &apos;Helvetica Neue&apos;, Arial, sans-serif" font-size="13.52" font-weight="700" fill="#9a9aa6">?</text></g></g></g></svg>