<svg xmlns="http://www.w3.org/2000/svg" viewBox="-88.022 -2 180.022 316" width="180.022" height="316" shape-rendering="geometricPrecision"><g><g data-key="pipe:1:n0"><rect x="-15" y="37" width="30" height="9" fill="#d9d9d9" stroke="#8a8a8a" stroke-width="1.21"/></g><g data-key="pipe:1:single:H@1-1#0"><rect x="-15" y="100" width="30" height="10" fill="#d9d9d9" stroke="#8a8a8a" stroke-width="1.21"/></g><g data-key="pipe:1:controlled@1-2#0"><rect x="-15" y="164" width="30" height="10" fill="#d9d9d9" stroke="#8a8a8a" stroke-width="1.21"/></g><g data-key="pipe:1:measure@1-1#0"><rect x="-15" y="228" width="30" height="9" fill="#d9d9d9" stroke="#8a8a8a" stroke-width="1.21"/></g><g data-key="pipe:2:n0"><rect x="45" y="37" width="30" height="73" fill="#d9d9d9" stroke="#8a8a8a" stroke-width="1.21"/></g><g data-key="pipe:2:controlled@1-2#0"><rect x="45" y="164" width="30" height="10" fill="#d9d9d9" stroke="#8a8a8a" stroke-width="1.21"/></g><g data-key="pipe:2:measure@2-2#0"><rect x="45" y="228" width="30" height="9" fill="#d9d9d9" stroke="#8a8a8a" stroke-width="1.21"/></g><g data-key="single:H@1-1#0"><rect x="-27" y="46" width="54" height="54" fill="#e9e9e9" stroke="#4a4a4a" stroke-width="1.76"/><rect x="-13.75" y="58.7" width="27.5" height="28.6" rx="2" fill="#ef5f5b"/><text x="0" y="80.81" text-anchor="middle" font-family="ui-sans-serif, system-ui, -apple-system, &apos;Helvetica Neue&apos;, Arial, sans-serif" font-size="22" font-weight="700" fill="#ffffff">H</text></g><g data-key="controlled@1-2#0"><rect x="-27" y="110" width="114" height="54" fill="#e9e9e9" stroke="#4a4a4a" stroke-width="1.76"/></g><g data-key="measure@1-1#0"><rect x="-27" y="174" width="54" height="54" fill="#9d9d9d" stroke="#4a4a4a" stroke-width="1.76"/><path d="M-16.2 209.1A16.2 16.2 0 0 1 16.2 209.1" fill="none" stroke="#111111" stroke-width="1.54" stroke-linecap="round"/><line x1="-12.312" y1="209.1" x2="-16.2" y2="209.1" stroke="#111111" stroke-width="1.232" stroke-linecap="round"/><line x1="-8.706" y1="200.394" x2="-11.455" y2="197.645" stroke="#111111" stroke-width="1.232" stroke-linecap="round"/><line x1="0" y1="196.788" x2="0" y2="192.9" stroke="#111111" stroke-width="1.232" stroke-linecap="round"/><line x1="8.706" y1="200.394" x2="11.455" y2="197.645" stroke="#111111" stroke-width="1.232" stroke-linecap="round"/><line x1="12.312" y1="209.1" x2="16.2" y2="209.1" stroke="#111111" stroke-width="1.232" stroke-linecap="round"/><line x1="0" y1="209.1" x2="7.067" y2="192.038" stroke="#111111" stroke-width="2.31" stroke-linecap="round"/><circle cx="0" cy="209.1" r="3.402" fill="#111111"/><text x="21.168" y="186.377" text-anchor="end" font-family="ui-sans-serif, system-ui, -apple-system, &apos;Helvetica Neue&apos;, Arial, sans-serif" font-size="12.96" font-weight="700" fill="#111111">Z</text></g><g data-key="measure@2-2#0"><rect x="33" y="174" width="54" height="54" fill="#9d9d9d" stroke="#4a4a4a" stroke-width="1.76"/><path d="M43.8 209.1A16.2 16.2 0 0 1 76.2 209.1" fill="none" stroke="#111111" stroke-width="1.54" stroke-linecap="round"/><line x1="47.688" y1="209.1" x2="43.8" y2="209.1" stroke="#111111" stroke-width="1.232" stroke-linecap="round"/><line x1="51.294" y1="200.394" x2="48.545" y2="197.645" stroke="#111111" stroke-width="1.232" stroke-linecap="round"/><line x1="60" y1="196.788" x2="60" y2="192.9" stroke="#111111" stroke-width="1.232" stroke-linecap="round"/><line x1="68.706" y1="200.394" x2="71.455" y2="197.645" stroke="#111111" stroke-width="1.232" stroke-linecap="round"/><line x1="72.312" y1="209.1" x2="76.2" y2="209.1" stroke="#111111" stroke-width="1.232" stroke-linecap="round"/><line x1="60" y1="209.1" x2="67.067" y2="192.038" stroke="#111111" stroke-width="2.31" stroke-linecap="round"/><circle cx="60" cy="209.1" r="3.402" fill="#111111"/><text x="81.168" y="186.377" text-anchor="end" font-family="ui-sans-serif, system-ui, -apple-system, &apos;Helvetica Neue&apos;, Arial, sans-serif" font-size="12.96" font-weight="700" fill="#111111">Z</text></g><g data-key="controlled@1-2#0"><line x1="0" y1="137" x2="60" y2="137" stroke="#1b3fae" stroke-width="3.3" stroke-linecap="round"/></g><g data-key="controlled@1-2#0"><circle cx="0" cy="137" r="6.6" fill="#1b3fae"/></g><g data-key="controlled@1-2#0"><circle cx="60" cy="137" r="13.2" fill="#1b3fae"/><line x1="52.74" y1="137" x2="67.26" y2="137" stroke="#ffffff" stroke-width="2.42" stroke-linecap="round"/><line x1="60" y1="129.74" x2="60" y2="144.26" stroke="#ffffff" stroke-width="2.42" stroke-linecap="round"/></g><g data-key="state:in"><g transform="translate(0 13)"><path d="M-13 0A13 13 0 1 0 13 0A13 13 0 1 0 -13 0Z" fill="#ffffff" stroke="#111111" stroke-width="2.2" stroke-linejoin="round"/></g></g><g data-key="state:in"><g transform="translate(60 13)"><path d="M-11.7 -11.7L11.7 -11.7L11.7 11.7L-11.7 11.7Z" fill="#ffffff" stroke="#111111" stroke-width="2.2" stroke-linejoin="round"/></g></g><g data-key="state:out"><g transform="translate(0 261)"><path d="M-13 0A13 13 0 1 0 13 0A13 13 0 1 0 -13 0Z" fill="#ffffff" stroke="#111111" stroke-width="2.2" stroke-linejoin="round"/></g></g><g data-key="state:out"><g transform="translate(60 261)"><path d="M-11.7 -11.7L11.7 -11.7L11.7 11.7L-11.7 11.7Z" fill="#ffffff" stroke="#111111" stroke-width="2.2" stroke-linejoin="round"/></g></g><g data-key="state:out"><g transform="translate(0 299)"><path d="M-13 0A13 13 0 1 0 13 0A13 13 0 1 0 -13 0Z" fill="#111111" stroke="#111111" stroke-width="2.2" stroke-linejoin="round"/></g></g><g data-key="state:out"><g transform="translate(60 299)"><path d="M-11.7 -11.7L11.7 -11.7L11.7 11.7L-11.7 11.7Z" fill="#111111" stroke="#111111" stroke-width="2.2" stroke-linejoin="round"/></g></g><text x="-42" y="268.81" text-anchor="end" font-family="ui-sans-serif, system-ui, -apple-system, &apos;Helvetica Neue&apos;, Arial, sans-serif" font-size="22" font-weight="400" fill="#111111">50%</text><text x="-42" y="306.81" text-anchor="end" font-family="ui-sans-serif, system-ui, -apple-system, &apos;Helvetica Neue&apos;, Arial, sans-serif" font-size="22" font-weight="400" fill="#111111">50%</text></g></svg>