<svg xmlns="http://www.w3.org/2000/svg" viewBox="-5 -3 97.04 108.609" width="97.04" height="108.609" shape-rendering="geometricPrecision"><defs><linearGradient id="ms-pipe" x1="0" y1="0" x2="1" y2="0"><stop offset="0%" stop-color="#a9a9a9"/><stop offset="32%" stop-color="#e9e9e9"/><stop offset="62%" stop-color="#d9d9d9"/><stop offset="100%" stop-color="#989898"/></linearGradient><linearGradient id="ms-gate" x1="0" y1="0" x2="0" y2="1"><stop offset="0%" stop-color="#f4f4f4"/><stop offset="100%" stop-color="#d2d2d2"/></linearGradient><linearGradient id="ms-shadow" x1="0" y1="0" x2="0" y2="1"><stop offset="0%" stop-color="#000000" stop-opacity="0"/><stop offset="55%" stop-color="#000000" stop-opacity="0.119"/><stop offset="100%" stop-color="#000000" stop-opacity="0.34"/></linearGradient><linearGradient id="ms-qubit-shadow" x1="0" y1="0" x2="0" y2="1"><stop offset="0%" stop-color="#000000" stop-opacity="0"/><stop offset="55%" stop-color="#000000" stop-opacity="0.105"/><stop offset="100%" stop-color="#000000" stop-opacity="0.3"/></linearGradient><radialGradient id="ms-qubit-lit" cx="0.34" cy="0.27" r="0.78"><stop offset="0%" stop-color="#ffffff" stop-opacity="0.46"/><stop offset="45%" stop-color="#ffffff" stop-opacity="0.11"/><stop offset="100%" stop-color="#ffffff" stop-opacity="0"/></radialGradient><radialGradient id="ms-qubit-dim" cx="0.35" cy="0.28" r="0.85"><stop offset="0%" stop-color="#000000" stop-opacity="0"/><stop offset="58%" stop-color="#000000" stop-opacity="0.05"/><stop offset="100%" stop-color="#000000" stop-opacity="0.21"/></radialGradient></defs><g><g transform="translate(13 13)"><g transform="translate(0 1.6)"><path d="M-13 0A13 13 0 1 0 13 0A13 13 0 1 0 -13 0Z" fill="url(#ms-qubit-shadow)" stroke="none"/></g><path d="M-13 0A13 13 0 1 0 13 0A13 13 0 1 0 -13 0Z" fill="#ffffff" stroke="#111111" stroke-width="2.2" stroke-linejoin="round"/><path d="M-13 0A13 13 0 1 0 13 0A13 13 0 1 0 -13 0Z" fill="url(#ms-qubit-dim)" stroke="none"/></g><g transform="translate(41.7 13)"><g transform="translate(0 1.6)"><path d="M-11.7 -11.7L11.7 -11.7L11.7 11.7L-11.7 11.7Z" fill="url(#ms-qubit-shadow)" stroke="none"/></g><path d="M-11.7 -11.7L11.7 -11.7L11.7 11.7L-11.7 11.7Z" fill="#ffffff" stroke="#b6b6b6" stroke-width="2.2" stroke-linejoin="round"/><path d="M-11.7 -11.7L11.7 -11.7L11.7 11.7L-11.7 11.7Z" fill="url(#ms-qubit-dim)" stroke="none"/><text x="0" y="4.8" text-anchor="middle" font-family="ui-sans-serif, system-ui, -apple-system, &apos;Helvetica Neue&apos;, Arial, sans-serif" font-size="13.52" font-weight="700" fill="#6b6b6b">?</text></g><g transform="translate(72.22 13)"><g transform="translate(0 1.6)"><path d="M0 -12.834L14.82 12.834L-14.82 12.834Z" fill="url(#ms-qubit-shadow)" stroke="none"/></g><path d="M0 -12.834L14.82 12.834L-14.82 12.834Z" fill="#111111" stroke="#111111" stroke-width="2.2" stroke-linejoin="round"/><path d="M0 -12.834L14.82 12.834L-14.82 12.834Z" fill="url(#ms-qubit-lit)" stroke="none"/></g><g transform="translate(0 2)"><path d="M33.872 45.993A14.269 14.269 0 0 1 56.685 46.19A14.177 14.177 0 0 1 74.182 60.293A12.239 12.239 0 0 1 72.056 81.988A12.113 12.113 0 0 1 53.168 93.38A13.675 13.675 0 0 1 30.659 91.373A13.497 13.497 0 0 1 11.611 79.88A15.913 15.913 0 0 1 13.25 56.502A15.925 15.925 0 0 1 33.872 45.993Z" fill="url(#ms-shadow)" stroke="none"/></g><path d="M33.872 45.993A14.269 14.269 0 0 1 56.685 46.19A14.177 14.177 0 0 1 74.182 60.293A12.239 12.239 0 0 1 72.056 81.988A12.113 12.113 0 0 1 53.168 93.38A13.675 13.675 0 0 1 30.659 91.373A13.497 13.497 0 0 1 11.611 79.88A15.913 15.913 0 0 1 13.25 56.502A15.925 15.925 0 0 1 33.872 45.993Z" fill="#ffffff" stroke="#111111" stroke-width="1.3" stroke-linejoin="round"/><text x="25.172" y="77.614" text-anchor="start" font-family="ui-sans-serif, system-ui, -apple-system, &apos;Helvetica Neue&apos;, Arial, sans-serif" font-size="22" font-weight="400" fill="#111111">???</text></g></svg>