<svg xmlns="http://www.w3.org/2000/svg" viewBox="-5 -3 408.489 162.82" width="408.489" height="162.82" shape-rendering="geometricPrecision"><defs><linearGradient id="ms-pipe" x1="0" y1="0" x2="1" y2="0"><stop offset="0%" stop-color="#a9a9a9"/><stop offset="32%" stop-color="#e9e9e9"/><stop offset="62%" stop-color="#d9d9d9"/><stop offset="100%" stop-color="#989898"/></linearGradient><linearGradient id="ms-gate" x1="0" y1="0" x2="0" y2="1"><stop offset="0%" stop-color="#f4f4f4"/><stop offset="100%" stop-color="#d2d2d2"/></linearGradient><linearGradient id="ms-shadow" x1="0" y1="0" x2="0" y2="1"><stop offset="0%" stop-color="#000000" stop-opacity="0"/><stop offset="55%" stop-color="#000000" stop-opacity="0.119"/><stop offset="100%" stop-color="#000000" stop-opacity="0.34"/></linearGradient><linearGradient id="ms-qubit-shadow" x1="0" y1="0" x2="0" y2="1"><stop offset="0%" stop-color="#000000" stop-opacity="0"/><stop offset="55%" stop-color="#000000" stop-opacity="0.105"/><stop offset="100%" stop-color="#000000" stop-opacity="0.3"/></linearGradient><radialGradient id="ms-qubit-lit" cx="0.34" cy="0.27" r="0.78"><stop offset="0%" stop-color="#ffffff" stop-opacity="0.46"/><stop offset="45%" stop-color="#ffffff" stop-opacity="0.11"/><stop offset="100%" stop-color="#ffffff" stop-opacity="0"/></radialGradient><radialGradient id="ms-qubit-dim" cx="0.35" cy="0.28" r="0.85"><stop offset="0%" stop-color="#000000" stop-opacity="0"/><stop offset="58%" stop-color="#000000" stop-opacity="0.05"/><stop offset="100%" stop-color="#000000" stop-opacity="0.21"/></radialGradient></defs><g><text x="39.664" y="41.594" text-anchor="end" font-family="ui-sans-serif, system-ui, -apple-system, &apos;Helvetica Neue&apos;, Arial, sans-serif" font-size="18.7" font-weight="600" fill="#111111">50%</text><text x="258.586" y="41.594" text-anchor="start" font-family="ui-sans-serif, system-ui, -apple-system, &apos;Helvetica Neue&apos;, Arial, sans-serif" font-size="18.7" font-weight="600" fill="#111111">measured white</text><g transform="translate(65.664 34.955)"><g transform="translate(0 1.6)"><path d="M-13 0A13 13 0 1 0 13 0A13 13 0 1 0 -13 0Z" fill="url(#ms-qubit-shadow)" stroke="none"/></g><path d="M-13 0A13 13 0 1 0 13 0A13 13 0 1 0 -13 0Z" fill="#ffffff" stroke="#111111" stroke-width="2.2" stroke-linejoin="round"/><path d="M-13 0A13 13 0 1 0 13 0A13 13 0 1 0 -13 0Z" fill="url(#ms-qubit-dim)" stroke="none"/></g><g transform="translate(94.364 34.955)"><g transform="translate(0 1.6)"><path d="M-11.7 -11.7L11.7 -11.7L11.7 11.7L-11.7 11.7Z" fill="url(#ms-qubit-shadow)" stroke="none"/></g><path d="M-11.7 -11.7L11.7 -11.7L11.7 11.7L-11.7 11.7Z" fill="#ffffff" stroke="#111111" stroke-width="2.2" stroke-linejoin="round"/><path d="M-11.7 -11.7L11.7 -11.7L11.7 11.7L-11.7 11.7Z" fill="url(#ms-qubit-dim)" stroke="none"/></g><g transform="translate(0 2)"><path d="M145.019 9.657A23.056 23.056 0 0 1 180.141 11.386A19.383 19.383 0 0 1 215.208 11.706A17.756 17.756 0 0 1 235.561 37.386A20.399 20.399 0 0 1 210.631 57.708A21.919 21.919 0 0 1 175.508 59.956A22.223 22.223 0 0 1 140.254 59.159A20.054 20.054 0 0 1 120.202 32.536A21.079 21.079 0 0 1 145.019 9.657Z" fill="url(#ms-shadow)" stroke="none"/></g><path d="M145.019 9.657A23.056 23.056 0 0 1 180.141 11.386A19.383 19.383 0 0 1 215.208 11.706A17.756 17.756 0 0 1 235.561 37.386A20.399 20.399 0 0 1 210.631 57.708A21.919 21.919 0 0 1 175.508 59.956A22.223 22.223 0 0 1 140.254 59.159A20.054 20.054 0 0 1 120.202 32.536A21.079 21.079 0 0 1 145.019 9.657Z" fill="#ffffff" stroke="#111111" stroke-width="1.3" stroke-linejoin="round"/><g transform="translate(150.005 34.955)"><g transform="translate(0 1.6)"><path d="M0 -12.834L14.82 12.834L-14.82 12.834Z" fill="url(#ms-qubit-shadow)" stroke="none"/></g><path d="M0 -12.834L14.82 12.834L-14.82 12.834Z" fill="#ffffff" stroke="#111111" stroke-width="2.2" stroke-linejoin="round"/><path d="M0 -12.834L14.82 12.834L-14.82 12.834Z" fill="url(#ms-qubit-dim)" stroke="none"/></g><rect x="180.025" y="33.305" width="7.8" height="3.3" fill="#111111"/><g transform="translate(205.645 34.955)"><g transform="translate(0 1.6)"><path d="M0 -12.834L14.82 12.834L-14.82 12.834Z" fill="url(#ms-qubit-shadow)" stroke="none"/></g><path d="M0 -12.834L14.82 12.834L-14.82 12.834Z" fill="#111111" stroke="#111111" stroke-width="2.2" stroke-linejoin="round"/><path d="M0 -12.834L14.82 12.834L-14.82 12.834Z" fill="url(#ms-qubit-lit)" stroke="none"/></g><rect x="170.825" y="22.891" width="3.2" height="24.128" fill="#111111"/><text x="39.664" y="125.504" text-anchor="end" font-family="ui-sans-serif, system-ui, -apple-system, &apos;Helvetica Neue&apos;, Arial, sans-serif" font-size="18.7" font-weight="600" fill="#111111">50%</text><text x="258.586" y="125.504" text-anchor="start" font-family="ui-sans-serif, system-ui, -apple-system, &apos;Helvetica Neue&apos;, Arial, sans-serif" font-size="18.7" font-weight="600" fill="#111111">measured black</text><g transform="translate(65.664 118.865)"><g transform="translate(0 1.6)"><path d="M-13 0A13 13 0 1 0 13 0A13 13 0 1 0 -13 0Z" fill="url(#ms-qubit-shadow)" stroke="none"/></g><path d="M-13 0A13 13 0 1 0 13 0A13 13 0 1 0 -13 0Z" fill="#111111" stroke="#111111" stroke-width="2.2" stroke-linejoin="round"/><path d="M-13 0A13 13 0 1 0 13 0A13 13 0 1 0 -13 0Z" fill="url(#ms-qubit-lit)" stroke="none"/></g><g transform="translate(94.364 118.865)"><g transform="translate(0 1.6)"><path d="M-11.7 -11.7L11.7 -11.7L11.7 11.7L-11.7 11.7Z" fill="url(#ms-qubit-shadow)" stroke="none"/></g><path d="M-11.7 -11.7L11.7 -11.7L11.7 11.7L-11.7 11.7Z" fill="#111111" stroke="#111111" stroke-width="2.2" stroke-linejoin="round"/><path d="M-11.7 -11.7L11.7 -11.7L11.7 11.7L-11.7 11.7Z" fill="url(#ms-qubit-lit)" stroke="none"/></g><g transform="translate(0 2)"><path d="M145.019 93.568A23.056 23.056 0 0 1 180.141 95.296A19.383 19.383 0 0 1 215.208 95.616A17.756 17.756 0 0 1 235.561 121.296A20.399 20.399 0 0 1 210.631 141.619A21.919 21.919 0 0 1 175.508 143.866A22.223 22.223 0 0 1 140.254 143.07A20.054 20.054 0 0 1 120.202 116.446A21.079 21.079 0 0 1 145.019 93.568Z" fill="url(#ms-shadow)" stroke="none"/></g><path d="M145.019 93.568A23.056 23.056 0 0 1 180.141 95.296A19.383 19.383 0 0 1 215.208 95.616A17.756 17.756 0 0 1 235.561 121.296A20.399 20.399 0 0 1 210.631 141.619A21.919 21.919 0 0 1 175.508 143.866A22.223 22.223 0 0 1 140.254 143.07A20.054 20.054 0 0 1 120.202 116.446A21.079 21.079 0 0 1 145.019 93.568Z" fill="#ffffff" stroke="#111111" stroke-width="1.3" stroke-linejoin="round"/><g transform="translate(150.005 118.865)"><g transform="translate(0 1.6)"><path d="M0 -12.834L14.82 12.834L-14.82 12.834Z" fill="url(#ms-qubit-shadow)" stroke="none"/></g><path d="M0 -12.834L14.82 12.834L-14.82 12.834Z" fill="#ffffff" stroke="#111111" stroke-width="2.2" stroke-linejoin="round"/><path d="M0 -12.834L14.82 12.834L-14.82 12.834Z" fill="url(#ms-qubit-dim)" stroke="none"/></g><rect x="180.025" y="117.215" width="7.8" height="3.3" fill="#111111"/><g transform="translate(205.645 118.865)"><g transform="translate(0 1.6)"><path d="M0 -12.834L14.82 12.834L-14.82 12.834Z" fill="url(#ms-qubit-shadow)" stroke="none"/></g><path d="M0 -12.834L14.82 12.834L-14.82 12.834Z" fill="#111111" stroke="#111111" stroke-width="2.2" stroke-linejoin="round"/><path d="M0 -12.834L14.82 12.834L-14.82 12.834Z" fill="url(#ms-qubit-lit)" stroke="none"/></g><rect x="170.825" y="106.801" width="3.2" height="24.128" fill="#111111"/></g></svg>