<svg xmlns="http://www.w3.org/2000/svg" viewBox="-35 -3 130 155" width="130" height="155" shape-rendering="geometricPrecision"><style>g[style*="animation-name"]{animation-duration:2.743s;animation-timing-function:cubic-bezier(0.35,0,0.65,1);animation-fill-mode:both;animation-play-state:var(--misty-play,running);animation-delay:var(--misty-at,0s);animation-iteration-count:1}@keyframes f0c{0%{opacity:1}20.833%{opacity:1}24.661%{opacity:0.22}42.526%{opacity:0.22}46.354%{opacity:1}100%{opacity:1}}@keyframes f0m{0%{opacity:1}20.833%{opacity:1}24.661%{opacity:0.5}42.526%{opacity:0.5}46.354%{opacity:1}100%{opacity:1}}@keyframes m0{0%{transform:translate(0px,13px)}20.833%{transform:translate(0px,73px)}28.49%{transform:translate(0px,73px)}38.698%{transform:translate(0px,73px)}46.354%{transform:translate(0px,73px)}67.188%{transform:translate(0px,133px)}100%{transform:translate(0px,133px)}}@keyframes v0_circle_1{0%{opacity:1}10.417%{opacity:1}24.661%{opacity:1}33.594%{opacity:1}42.526%{opacity:1}56.771%{opacity:1}100%{opacity:1}}@keyframes m1{0%{transform:translate(60px,13px)}20.833%{transform:translate(60px,73px)}28.49%{transform:translate(60px,73px)}38.698%{transform:translate(60px,73px)}46.354%{transform:translate(60px,73px)}67.188%{transform:translate(60px,133px)}100%{transform:translate(60px,133px)}}@keyframes v1_square_1{0%{opacity:1}10.417%{opacity:1}24.661%{opacity:1}33.594%{opacity:0}42.526%{opacity:0}56.771%{opacity:0}100%{opacity:0}}@keyframes v1_square_0{0%{opacity:0}10.417%{opacity:0}24.661%{opacity:0}33.594%{opacity:1}42.526%{opacity:1}56.771%{opacity:1}100%{opacity:1}}</style><defs><linearGradient id="ms-pipe" x1="0" y1="0" x2="1" y2="0"><stop offset="0%" stop-color="#a9a9a9"/><stop offset="32%" stop-color="#e9e9e9"/><stop offset="62%" stop-color="#d9d9d9"/><stop offset="100%" stop-color="#989898"/></linearGradient><linearGradient id="ms-gate" x1="0" y1="0" x2="0" y2="1"><stop offset="0%" stop-color="#f4f4f4"/><stop offset="100%" stop-color="#d2d2d2"/></linearGradient><linearGradient id="ms-shadow" x1="0" y1="0" x2="0" y2="1"><stop offset="0%" stop-color="#000000" stop-opacity="0"/><stop offset="55%" stop-color="#000000" stop-opacity="0.119"/><stop offset="100%" stop-color="#000000" stop-opacity="0.34"/></linearGradient><linearGradient id="ms-qubit-shadow" x1="0" y1="0" x2="0" y2="1"><stop offset="0%" stop-color="#000000" stop-opacity="0"/><stop offset="55%" stop-color="#000000" stop-opacity="0.105"/><stop offset="100%" stop-color="#000000" stop-opacity="0.3"/></linearGradient><radialGradient id="ms-qubit-lit" cx="0.34" cy="0.27" r="0.78"><stop offset="0%" stop-color="#ffffff" stop-opacity="0.46"/><stop offset="45%" stop-color="#ffffff" stop-opacity="0.11"/><stop offset="100%" stop-color="#ffffff" stop-opacity="0"/></radialGradient><radialGradient id="ms-qubit-dim" cx="0.35" cy="0.28" r="0.85"><stop offset="0%" stop-color="#000000" stop-opacity="0"/><stop offset="58%" stop-color="#000000" stop-opacity="0.05"/><stop offset="100%" stop-color="#000000" stop-opacity="0.21"/></radialGradient></defs><g><rect x="-15" y="37" width="30" height="9" fill="url(#ms-pipe)" stroke="#8a8a8a" stroke-width="1.1"/><rect x="-15" y="100" width="30" height="9" fill="url(#ms-pipe)" stroke="#8a8a8a" stroke-width="1.1"/><rect x="45" y="37" width="30" height="9" fill="url(#ms-pipe)" stroke="#8a8a8a" stroke-width="1.1"/><rect x="45" y="100" width="30" height="9" fill="url(#ms-pipe)" stroke="#8a8a8a" stroke-width="1.1"/><g style="animation-name:f0c"><rect x="-27.8" y="48.2" width="115.6" height="54" rx="3.5" fill="url(#ms-shadow)" stroke="none"/><rect x="-27" y="46" width="114" height="54" rx="3" fill="url(#ms-gate)" stroke="#4a4a4a" stroke-width="1.76"/></g><g style="animation-name:m0"><g style="animation-name:v0_circle_1;animation-timing-function:step-end"><g transform="translate(0 0)"><g transform="translate(0 1.6)"><path d="M-13 0A13 13 0 1 0 13 0A13 13 0 1 0 -13 0Z" fill="url(#ms-qubit-shadow)" stroke="none"/></g><path d="M-13 0A13 13 0 1 0 13 0A13 13 0 1 0 -13 0Z" fill="#111111" stroke="#111111" stroke-width="2.2" stroke-linejoin="round"/><path d="M-13 0A13 13 0 1 0 13 0A13 13 0 1 0 -13 0Z" fill="url(#ms-qubit-lit)" stroke="none"/></g></g></g><g style="animation-name:m1"><g style="animation-name:v1_square_1;animation-timing-function:step-end"><g transform="translate(0 0)"><g transform="translate(0 1.6)"><path d="M-11.7 -11.7L11.7 -11.7L11.7 11.7L-11.7 11.7Z" fill="url(#ms-qubit-shadow)" stroke="none"/></g><path d="M-11.7 -11.7L11.7 -11.7L11.7 11.7L-11.7 11.7Z" fill="#111111" stroke="#111111" stroke-width="2.2" stroke-linejoin="round"/><path d="M-11.7 -11.7L11.7 -11.7L11.7 11.7L-11.7 11.7Z" fill="url(#ms-qubit-lit)" stroke="none"/></g></g><g style="animation-name:v1_square_0;animation-timing-function:step-end"><g transform="translate(0 0)"><g transform="translate(0 1.6)"><path d="M-11.7 -11.7L11.7 -11.7L11.7 11.7L-11.7 11.7Z" fill="url(#ms-qubit-shadow)" stroke="none"/></g><path d="M-11.7 -11.7L11.7 -11.7L11.7 11.7L-11.7 11.7Z" fill="#ffffff" stroke="#111111" stroke-width="2.2" stroke-linejoin="round"/><path d="M-11.7 -11.7L11.7 -11.7L11.7 11.7L-11.7 11.7Z" fill="url(#ms-qubit-dim)" stroke="none"/></g></g></g><g style="animation-name:f0m"><line x1="0" y1="73" x2="60" y2="73" stroke="#1b3fae" stroke-width="3.3" stroke-linecap="round"/></g><g style="animation-name:f0m"><circle cx="0" cy="73" r="6.6" fill="#1b3fae"/></g><g style="animation-name:f0m"><circle cx="60" cy="73" r="13.2" fill="#1b3fae"/><line x1="52.74" y1="73" x2="67.26" y2="73" stroke="#ffffff" stroke-width="2.42" stroke-linecap="round"/><line x1="60" y1="65.74" x2="60" y2="80.26" stroke="#ffffff" stroke-width="2.42" stroke-linecap="round"/></g></g></svg>